<?xml version="1.0" encoding="UTF-8"?><svg id="Capa_2" xmlns="http://www.w3.org/2000/svg" width="148.46" height="39.03" viewBox="0 0 148.46 39.03"><defs><style>.cls-1,.cls-2,.cls-3,.cls-4,.cls-5,.cls-6,.cls-7,.cls-8{fill:none;stroke:#fff;stroke-miterlimit:10;stroke-width:.51px;}.cls-2{stroke-dasharray:0 0 .46 .46;}.cls-9{fill:#fff;stroke-width:0px;}.cls-3{stroke-dasharray:0 .47;}.cls-4{stroke-dasharray:0 0 .46 .46;}.cls-5{stroke-dasharray:0 0 .46 .46;}.cls-6{stroke-dasharray:0 0 .49 .49;}.cls-7{stroke-dasharray:0 0 .48 .48;}.cls-8{stroke-dasharray:0 0 .48 .48;}</style></defs><g id="Capa_1-2"><polygon class="cls-1" points=".32 22.52 9.22 36.74 21.45 33.23 21.45 19.78 9.16 12.6 .32 22.52"/><polygon class="cls-1" points="42.4 22.51 33.49 36.72 21.26 33.21 21.26 19.77 33.56 12.58 42.4 22.51"/><polygon class="cls-1" points="12.65 .64 9.03 12.67 21.3 19.72 33.64 12.67 30.16 .64 12.65 .64"/><polygon class="cls-1" points=".32 22.37 .32 16.84 9.03 2.83 12.65 .64 9.03 12.59 .32 22.37"/><polygon class="cls-1" points="42.49 22.44 42.49 16.87 33.77 2.76 30.15 .56 33.77 12.59 42.49 22.44"/><line class="cls-1" x1=".32" y1="16.84" x2=".47" y2="17.02"/><line class="cls-5" x1=".78" y1="17.37" x2="8.58" y2="26.28"/><polyline class="cls-1" points="8.73 26.45 8.88 26.63 9.09 26.52"/><line class="cls-8" x1="9.51" y1="26.28" x2="20.99" y2="19.95"/><polyline class="cls-1" points="21.2 19.83 21.4 19.72 21.4 19.48"/><line class="cls-4" x1="21.4" y1="19.02" x2="21.4" y2="6.26"/><polyline class="cls-1" points="21.4 6.03 21.4 5.8 21.17 5.74"/><line class="cls-6" x1="20.7" y1="5.63" x2="9.5" y2="2.94"/><line class="cls-1" x1="9.26" y1="2.88" x2="9.03" y2="2.83"/><line class="cls-1" x1="21.4" y1="19.72" x2="21.61" y2="19.83"/><line class="cls-7" x1="22.03" y1="20.06" x2="33.51" y2="26.36"/><polyline class="cls-1" points="33.71 26.47 33.92 26.58 34.08 26.41"/><line class="cls-2" x1="34.38" y1="26.06" x2="42.18" y2="17.22"/><line class="cls-1" x1="42.33" y1="17.05" x2="42.49" y2="16.87"/><polyline class="cls-1" points="9.22 36.74 12.59 38.78 30.1 38.78 33.49 36.72"/><line class="cls-3" x1="8.88" y1="26.63" x2="12.59" y2="38.78"/><line class="cls-3" x1="33.92" y1="26.58" x2="30.1" y2="38.78"/><line class="cls-3" x1="21.4" y1="5.8" x2="33.77" y2="2.76"/><path class="cls-9" d="m56.67,19.88c0,1.5-.15,2.78-.44,3.83s-.7,1.9-1.21,2.56c-.51.66-1.12,1.13-1.82,1.43-.7.3-1.46.45-2.28.45s-1.7-.13-2.55-.39v-15.75c.86-.26,1.71-.39,2.55-.39s1.58.15,2.28.45c.7.3,1.31.78,1.82,1.44.51.66.91,1.52,1.21,2.57.29,1.05.44,2.32.44,3.81Zm-6.62,6.33c.34.05.69.08,1.04.08.61,0,1.16-.12,1.64-.35s.88-.61,1.21-1.13.58-1.18.76-2c.18-.81.27-1.79.27-2.93,0-2.21-.33-3.83-.99-4.86-.66-1.03-1.64-1.55-2.93-1.55-.18,0-.35,0-.52.01-.17,0-.32.03-.46.07v12.65Z"/><path class="cls-9" d="m58,19.67c0-1.45.11-2.71.33-3.78.22-1.07.52-1.95.92-2.64s.87-1.21,1.42-1.55,1.17-.51,1.85-.51,1.28.17,1.84.51,1.04.86,1.43,1.55.71,1.57.93,2.64c.22,1.07.34,2.33.34,3.78s-.11,2.71-.34,3.78c-.22,1.07-.53,1.95-.93,2.65-.4.7-.87,1.22-1.43,1.55-.56.33-1.17.5-1.84.5s-1.3-.17-1.85-.5c-.55-.33-1.03-.85-1.42-1.55-.4-.7-.7-1.58-.92-2.65-.22-1.07-.33-2.33-.33-3.78Zm1.72,0c0,2.14.22,3.77.67,4.91s1.15,1.71,2.09,1.71,1.67-.57,2.15-1.71.72-2.77.72-4.91-.24-3.77-.72-4.91c-.48-1.14-1.19-1.71-2.15-1.71s-1.64.57-2.09,1.71c-.45,1.14-.67,2.78-.67,4.91Z"/><path class="cls-9" d="m76.95,19.88c0,1.5-.15,2.78-.44,3.83s-.7,1.9-1.21,2.56c-.51.66-1.12,1.13-1.82,1.43-.7.3-1.46.45-2.28.45s-1.7-.13-2.55-.39v-15.75c.86-.26,1.71-.39,2.55-.39s1.58.15,2.28.45c.7.3,1.31.78,1.82,1.44.51.66.91,1.52,1.21,2.57.29,1.05.44,2.32.44,3.81Zm-6.62,6.33c.34.05.69.08,1.04.08.61,0,1.16-.12,1.64-.35s.88-.61,1.21-1.13.58-1.18.76-2c.18-.81.27-1.79.27-2.93,0-2.21-.33-3.83-.99-4.86-.66-1.03-1.64-1.55-2.93-1.55-.18,0-.35,0-.52.01-.17,0-.32.03-.46.07v12.65Z"/><path class="cls-9" d="m79.55,28.15V11.9h7.09v1.84h-5.42v4.99h4.74v1.84h-4.74v5.75h5.87v1.84h-7.54Z"/><path class="cls-9" d="m97.23,27.13c-.48.35-.99.61-1.52.78-.54.17-1.11.25-1.73.25-.75,0-1.44-.17-2.08-.51-.63-.34-1.18-.86-1.65-1.55s-.83-1.57-1.09-2.64c-.27-1.07-.4-2.33-.4-3.78s.14-2.6.42-3.65c.28-1.05.66-1.93,1.13-2.65.48-.72,1.04-1.26,1.68-1.63.64-.37,1.32-.55,2.04-.55.5,0,1.02.09,1.54.26s1.04.46,1.54.87l-.49,1.79c-.9-.67-1.75-1-2.53-1-.56,0-1.06.15-1.5.46-.44.31-.82.75-1.14,1.33-.31.58-.55,1.27-.73,2.07s-.26,1.71-.26,2.7c0,1.12.09,2.09.28,2.91.18.82.44,1.51.77,2.05s.72.94,1.18,1.21c.46.26.95.39,1.48.39.4,0,.81-.07,1.25-.2s.89-.36,1.35-.7l.45,1.79Z"/><path class="cls-9" d="m106.22,28.15l-.76-4.25h-4.86l-.74,4.25h-1.72c.23-1.16.49-2.41.78-3.75.29-1.35.6-2.73.93-4.15.33-1.42.69-2.84,1.05-4.27.37-1.43.76-2.79,1.17-4.08h2.08c.4,1.29.77,2.66,1.14,4.08.36,1.43.7,2.85,1.02,4.27.32,1.42.62,2.8.91,4.15.29,1.35.54,2.6.78,3.75h-1.78Zm-3.17-14.36c-.31,1.1-.65,2.38-1.02,3.83s-.72,2.95-1.04,4.49h4.09c-.31-1.57-.65-3.09-1.01-4.55s-.7-2.72-1.01-3.77Z"/><path class="cls-9" d="m110.25,28.15V11.9h7.09v1.84h-5.42v4.99h4.74v1.84h-4.74v5.75h5.87v1.84h-7.54Z"/><path class="cls-9" d="m127.93,19.88c0,1.5-.15,2.78-.44,3.83s-.7,1.9-1.21,2.56c-.51.66-1.12,1.13-1.82,1.43-.7.3-1.46.45-2.28.45s-1.7-.13-2.55-.39v-15.75c.86-.26,1.71-.39,2.55-.39s1.58.15,2.28.45c.7.3,1.31.78,1.82,1.44.51.66.91,1.52,1.21,2.57.29,1.05.44,2.32.44,3.81Zm-6.62,6.33c.34.05.69.08,1.04.08.61,0,1.16-.12,1.64-.35s.88-.61,1.21-1.13.58-1.18.76-2c.18-.81.27-1.79.27-2.93,0-2.21-.33-3.83-.99-4.86-.66-1.03-1.64-1.55-2.93-1.55-.18,0-.35,0-.52.01-.17,0-.32.03-.46.07v12.65Z"/><path class="cls-9" d="m137.48,16.86c0,1-.2,1.88-.61,2.64-.41.76-.96,1.35-1.66,1.77.2.42.43.9.68,1.43.25.53.51,1.1.77,1.71.26.6.51,1.22.77,1.86.25.64.49,1.26.71,1.88h-1.8c-.41-1.26-.85-2.47-1.34-3.62s-.95-2.09-1.4-2.81c-.08.02-.2.03-.36.03h-1.75v6.41h-1.7V12.14c.2-.07.44-.13.71-.18.27-.05.54-.09.82-.12.28-.03.55-.05.83-.07.27-.02.52-.03.74-.03,1.53,0,2.68.43,3.45,1.29s1.16,2.14,1.16,3.83Zm-4.46-3.26c-.31,0-.62,0-.91.01-.29,0-.5.03-.62.07v6.27h1.08c.49,0,.93-.04,1.32-.13.39-.09.72-.25,1-.49s.49-.56.64-.97c.15-.41.22-.95.22-1.61,0-.63-.08-1.15-.22-1.55-.15-.4-.35-.72-.59-.96-.25-.24-.53-.4-.87-.5-.33-.1-.68-.15-1.05-.15Z"/><path class="cls-9" d="m139.4,19.67c0-1.45.11-2.71.33-3.78.22-1.07.52-1.95.92-2.64s.87-1.21,1.42-1.55,1.17-.51,1.85-.51,1.28.17,1.84.51,1.04.86,1.43,1.55.71,1.57.93,2.64c.22,1.07.34,2.33.34,3.78s-.11,2.71-.34,3.78c-.22,1.07-.53,1.95-.93,2.65-.4.7-.87,1.22-1.43,1.55-.56.33-1.17.5-1.84.5s-1.3-.17-1.85-.5c-.55-.33-1.03-.85-1.42-1.55-.4-.7-.7-1.58-.92-2.65-.22-1.07-.33-2.33-.33-3.78Zm1.72,0c0,2.14.22,3.77.67,4.91s1.15,1.71,2.09,1.71,1.67-.57,2.15-1.71.72-2.77.72-4.91-.24-3.77-.72-4.91c-.48-1.14-1.19-1.71-2.15-1.71s-1.64.57-2.09,1.71c-.45,1.14-.67,2.78-.67,4.91Z"/></g></svg>