<?xml version="1.0" encoding="UTF-8"?><svg id="Capa_2" xmlns="http://www.w3.org/2000/svg" width="94.98" height="34.76" viewBox="0 0 94.98 34.76"><defs><style>.cls-1{stroke-dasharray:0 0 .43 .43;}.cls-1,.cls-2,.cls-3,.cls-4,.cls-5,.cls-6,.cls-7,.cls-8{fill:none;stroke:#fff;stroke-miterlimit:10;stroke-width:.44px;}.cls-9{fill:#fff;stroke-width:0px;}.cls-3{stroke-dasharray:0 0 .41 .41;}.cls-4{stroke-dasharray:0 0 .4 .4;}.cls-5{stroke-dasharray:0 0 .42 .42;}.cls-6{stroke-dasharray:0 0 .42 .42;}.cls-7{stroke-dasharray:0 .41;}.cls-8{stroke-dasharray:0 0 .41 .41;}</style></defs><g id="Capa_1-2"><polygon class="cls-2" points=".28 19.71 8.07 32.16 18.77 29.09 18.77 17.31 8.01 11.03 .28 19.71"/><polygon class="cls-2" points="37.11 19.7 29.31 32.14 18.61 29.07 18.61 17.3 29.37 11.01 37.11 19.7"/><polygon class="cls-2" points="11.07 .56 7.91 11.09 18.64 17.26 29.44 11.09 26.4 .56 11.07 .56"/><polygon class="cls-2" points=".28 19.58 .28 14.74 7.91 2.47 11.07 .56 7.91 11.02 .28 19.58"/><polygon class="cls-2" points="37.19 19.64 37.19 14.76 29.56 2.42 26.39 .49 29.56 11.02 37.19 19.64"/><line class="cls-2" x1=".28" y1="14.74" x2=".41" y2="14.89"/><line class="cls-3" x1=".68" y1="15.2" x2="7.51" y2="23"/><polyline class="cls-2" points="7.64 23.15 7.78 23.31 7.96 23.21"/><line class="cls-6" x1="8.32" y1="23.01" x2="18.37" y2="17.46"/><polyline class="cls-2" points="18.55 17.36 18.73 17.26 18.73 17.05"/><line class="cls-8" x1="18.73" y1="16.65" x2="18.73" y2="5.48"/><polyline class="cls-2" points="18.73 5.28 18.73 5.07 18.53 5.03"/><line class="cls-1" x1="18.12" y1="4.92" x2="8.32" y2="2.57"/><line class="cls-2" x1="8.11" y1="2.52" x2="7.91" y2="2.47"/><line class="cls-2" x1="18.73" y1="17.26" x2="18.91" y2="17.36"/><line class="cls-5" x1="19.28" y1="17.56" x2="29.33" y2="23.07"/><polyline class="cls-2" points="29.51 23.17 29.69 23.27 29.83 23.11"/><line class="cls-4" x1="30.09" y1="22.81" x2="36.92" y2="15.07"/><line class="cls-2" x1="37.05" y1="14.92" x2="37.19" y2="14.76"/><polyline class="cls-2" points="8.07 32.16 11.02 33.94 26.35 33.94 29.31 32.14"/><line class="cls-7" x1="7.78" y1="23.31" x2="11.02" y2="33.94"/><line class="cls-7" x1="29.69" y1="23.27" x2="26.35" y2="33.94"/><line class="cls-7" x1="18.73" y1="5.07" x2="29.56" y2="2.42"/><path class="cls-9" d="m50.06,7.49c0,1.32-.13,2.44-.38,3.35s-.61,1.67-1.06,2.24c-.45.57-.98.99-1.59,1.25-.62.26-1.28.39-2,.39s-1.48-.11-2.24-.34V.6c.75-.23,1.5-.34,2.24-.34s1.38.13,2,.39c.61.26,1.15.68,1.59,1.26.45.58.8,1.33,1.06,2.25.26.92.38,2.03.38,3.33Zm-5.8,5.54c.3.04.6.07.91.07.54,0,1.01-.1,1.43-.31s.77-.54,1.06-.99.51-1.03.66-1.75c.15-.71.23-1.57.23-2.56,0-1.93-.29-3.35-.87-4.25-.58-.9-1.44-1.36-2.57-1.36-.15,0-.31,0-.46.01-.15,0-.28.03-.4.06v11.08Z"/><path class="cls-9" d="m51.22,7.49c0-1.27.09-2.38.29-3.31.19-.94.46-1.7.8-2.31s.76-1.06,1.24-1.36,1.02-.45,1.62-.45,1.12.15,1.61.45.91.75,1.25,1.36.62,1.37.81,2.31c.2.93.3,2.04.3,3.31s-.1,2.37-.3,3.31c-.2.94-.47,1.71-.81,2.32-.35.61-.76,1.07-1.25,1.36-.49.29-1.03.44-1.61.44s-1.14-.15-1.62-.44c-.48-.29-.9-.74-1.24-1.36-.35-.61-.61-1.39-.8-2.32-.19-.93-.29-2.04-.29-3.31Zm1.5,0c0,1.87.2,3.3.59,4.3s1,1.49,1.83,1.49,1.46-.5,1.88-1.49.63-2.43.63-4.3-.21-3.3-.63-4.3c-.42-.99-1.04-1.49-1.88-1.49s-1.43.5-1.83,1.49c-.39,1-.59,2.43-.59,4.3Z"/><path class="cls-9" d="m67.8,7.49c0,1.32-.13,2.44-.38,3.35s-.61,1.67-1.06,2.24c-.45.57-.98.99-1.59,1.25-.62.26-1.28.39-2,.39s-1.48-.11-2.24-.34V.6c.75-.23,1.5-.34,2.24-.34s1.38.13,2,.39c.61.26,1.15.68,1.59,1.26.45.58.8,1.33,1.06,2.25.26.92.38,2.03.38,3.33Zm-5.8,5.54c.3.04.6.07.91.07.54,0,1.01-.1,1.43-.31s.77-.54,1.06-.99.51-1.03.66-1.75c.15-.71.23-1.57.23-2.56,0-1.93-.29-3.35-.87-4.25-.58-.9-1.44-1.36-2.57-1.36-.15,0-.31,0-.46.01-.15,0-.28.03-.4.06v11.08Z"/><path class="cls-9" d="m70.08,14.61V.39h6.21v1.61h-4.74v4.37h4.15v1.61h-4.15v5.03h5.14v1.61h-6.6Z"/><path class="cls-9" d="m85.55,14.02c-.42.31-.86.53-1.33.68-.47.14-.97.22-1.51.22-.66,0-1.26-.15-1.82-.45-.55-.3-1.03-.75-1.44-1.36s-.72-1.37-.96-2.31c-.23-.93-.35-2.04-.35-3.31s.12-2.28.37-3.19c.24-.92.58-1.69.99-2.32.42-.63.91-1.1,1.47-1.42.56-.32,1.16-.48,1.79-.48.44,0,.89.08,1.35.23s.91.41,1.35.76l-.43,1.56c-.79-.58-1.53-.87-2.22-.87-.49,0-.93.13-1.31.4-.39.27-.72.65-.99,1.16-.27.51-.49,1.11-.63,1.82s-.22,1.49-.22,2.37c0,.98.08,1.83.24,2.55.16.72.38,1.32.67,1.79s.63.83,1.03,1.06c.4.23.83.34,1.3.34.35,0,.71-.06,1.09-.17s.78-.32,1.18-.61l.39,1.56Z"/><path class="cls-9" d="m93.43,14.61l-.66-3.72h-4.26l-.64,3.72h-1.5c.2-1.01.43-2.11.68-3.29.25-1.18.52-2.39.81-3.63.29-1.24.6-2.49.92-3.73.32-1.25.66-2.44,1.02-3.57h1.82c.35,1.13.68,2.32.99,3.57.32,1.25.61,2.49.9,3.73.28,1.24.55,2.45.8,3.63.25,1.18.48,2.27.68,3.29h-1.56Zm-2.77-12.57c-.27.97-.57,2.08-.89,3.36s-.63,2.58-.91,3.93h3.58c-.27-1.38-.57-2.71-.89-3.99s-.61-2.38-.89-3.3Z"/><path class="cls-9" d="m48.5,20.24h1.47v14.22h-1.47v-6.62h-4.4v6.62h-1.47v-14.22h1.47v6h4.4v-6Z"/><path class="cls-9" d="m52.33,34.46v-14.22h6.21v1.61h-4.74v4.37h4.15v1.61h-4.15v5.03h5.14v1.61h-6.6Z"/><path class="cls-9" d="m67.8,27.34c0,1.32-.13,2.44-.38,3.35s-.61,1.67-1.06,2.24c-.45.57-.98.99-1.59,1.25-.62.26-1.28.39-2,.39s-1.48-.11-2.24-.34v-13.79c.75-.23,1.5-.34,2.24-.34s1.38.13,2,.39c.61.26,1.15.68,1.59,1.26.45.58.8,1.33,1.06,2.25.26.92.38,2.03.38,3.33Zm-5.8,5.54c.3.04.6.07.91.07.54,0,1.01-.1,1.43-.31s.77-.54,1.06-.99.51-1.03.66-1.75c.15-.71.23-1.57.23-2.56,0-1.93-.29-3.35-.87-4.25-.58-.9-1.44-1.36-2.57-1.36-.15,0-.31,0-.46.01-.15,0-.28.03-.4.06v11.08Z"/><path class="cls-9" d="m76.16,24.58c0,.87-.18,1.64-.54,2.31-.36.67-.84,1.18-1.45,1.55.18.37.38.79.6,1.25.22.47.44.96.67,1.49.23.53.45,1.07.67,1.63.22.56.43,1.11.62,1.64h-1.57c-.36-1.1-.75-2.16-1.17-3.17s-.83-1.83-1.23-2.46c-.07.02-.18.02-.31.02h-1.53v5.61h-1.49v-14.02c.18-.06.38-.12.62-.16.23-.04.47-.08.72-.1.24-.02.49-.04.72-.06.24-.01.45-.02.64-.02,1.34,0,2.34.37,3.02,1.13s1.01,1.87,1.01,3.36Zm-3.9-2.85c-.27,0-.54,0-.8.01-.26,0-.44.03-.55.06v5.49h.95c.43,0,.81-.04,1.15-.12.34-.08.63-.22.88-.42s.43-.49.56-.85c.13-.36.2-.83.2-1.41,0-.55-.07-1-.2-1.36-.13-.35-.31-.63-.52-.84-.22-.21-.47-.35-.76-.44-.29-.08-.6-.13-.92-.13Z"/><path class="cls-9" d="m77.84,27.34c0-1.27.09-2.38.29-3.31.19-.94.46-1.7.8-2.31s.76-1.06,1.24-1.36,1.02-.45,1.62-.45,1.12.15,1.61.45.91.75,1.25,1.36.62,1.37.81,2.31c.2.93.3,2.04.3,3.31s-.1,2.37-.3,3.31c-.2.94-.47,1.71-.81,2.32-.35.61-.76,1.07-1.25,1.36-.49.29-1.03.44-1.61.44s-1.14-.15-1.62-.44c-.48-.29-.9-.74-1.24-1.36-.35-.61-.61-1.39-.8-2.32-.19-.93-.29-2.04-.29-3.31Zm1.5,0c0,1.87.2,3.3.59,4.3s1,1.49,1.83,1.49,1.46-.5,1.88-1.49.63-2.43.63-4.3-.21-3.3-.63-4.3c-.42-.99-1.04-1.49-1.88-1.49s-1.43.5-1.83,1.49c-.39,1-.59,2.43-.59,4.3Z"/></g></svg>