<?xml version="1.0" encoding="UTF-8"?><svg id="Capa_2" xmlns="http://www.w3.org/2000/svg" width="71.98mm" height="67.31mm" viewBox="0 0 204.02 190.8"><defs><style>.cls-1{fill:#fff;stroke:#fff;stroke-width:13.41px;}.cls-1,.cls-2,.cls-3,.cls-4,.cls-5{stroke-miterlimit:10;}.cls-6,.cls-2,.cls-3,.cls-7,.cls-5{stroke:#010101;}.cls-6,.cls-3,.cls-7,.cls-5{stroke-width:.98px;}.cls-6,.cls-7{stroke-linecap:round;stroke-linejoin:round;}.cls-6,.cls-5{fill:#e84531;}.cls-8{fill:#3f79bd;}.cls-2{fill:none;stroke-width:.49px;}.cls-3{fill:#3b6bb2;}.cls-4{fill:#202020;stroke:#0f0f0f;stroke-width:1px;}.cls-7{fill:#e84532;}.cls-9{fill:#010101;}.cls-10{fill:#111;}</style></defs><g id="Capa_1-2"><path id="OUTLINE" class="cls-1" d="M147.99,114.82c-.17-1.2-.3-2.41-.39-3.62-.23-3.03-.71-9.39-1.16-15.64l45.5-61.26-39.75-5.7c-.62-6.28-2.2-13.29-6.89-14.05-6.52-1.06-9.15,4.11-9.64,5.25-.38.87-1.29,3.04-2.28,6.1l-1.4-.2c-.21-4.03-1.11-7.64-2.68-9.75-4.9-6.6-8.47-4.44-8.47-4.44-3.97.87-6.82,5.31-8.87,11.31l-.11-.02c2.47-6.28,3.77-14.08-4.51-14.92-8.49-.86-14.08,5.67-17.34,11.79l-4.16-.6c.17-4.47-.28-10.36-3.83-10.79-2.62-.31-4.75,4.26-6.3,9.34l-4.17-.6c-.05-.17-.08-.27-.08-.27,0,0-.65-3.56-5.46-3.86-1.53-.09-2.51,1.05-3.15,2.88l-2.65-.38c-.03-.41-.07-.82-.14-1.23-.35-1.95-1.32-4.36-2.77-5.15-1.73-.94-3.59-.97-5.09.1-.92.65-1.44,1.68-1.49,2.75-.03.55-.06,1.28-.11,2.16L10.54,8.28l33.27,82.98c-1.72,9.98-1.95,20.69-1.92,26.43.02,3.76.89,7.48,2.67,10.86,1.86,3.52,4.66,6.69,8.2,4.44,1.83-1.17,3.48-3.98,4.79-7.47l.49,1.21c-1.44,7.07-2.13,14.19.64,14.57,1.9.27,3.32-.75,4.35-2.11l15.58,38.87,36.53-42.45c.64.14,1.34.07,2.09-.26,2.53-1.11,2.91-4.01,2.9-5.71,0-.14,0-.27,0-.41l5.14-6.57c-1.72,7.69-2.86,16.25.19,16.67,5,.7,6.69-7.47,6.69-7.47,0,0,3.5-15.14,5.6-15.14,0,0,1.7-.3,1.3,2.39-.4,2.69-1.9,26.2,5.89,26.9,7.79.7,6.02-10.26,6.02-10.26l-2.96-20.92ZM142.8,27.21s.03.04.05.06l-.87-.12c.22-.21.49-.24.82.07ZM50.96,115.79c-.19-2.11-.2-4.45-.08-6.89l.64,1.6c-.5,2.85-.56,5.29-.56,5.29Z"/><g id="TRIANGLE"><polygon id="_x32_-BLACK" class="cls-4" points="83.96 175.96 51.78 92.94 19.6 9.92 105.63 22.54 191.65 35.15 137.8 105.56 83.96 175.96"/><g id="_x31_-BLUE"><polygon class="cls-8" points="79.32 177.75 46.05 92.94 12.78 8.14 101.44 21.14 190.1 34.14 134.71 105.94 79.32 177.75"/><polygon class="cls-2" points="79.32 177.75 46.05 92.94 12.78 8.14 101.44 21.14 190.1 34.14 134.71 105.94 79.32 177.75"/></g></g><g id="TEXT-IMPROCAMPA"><path id="_x32_.M" class="cls-6" d="M92.71,116.27s1.81,16.73-2.76,18.55c-2.67,1.06-4.12-1.05-4.88-2.99-.47-1.22-.71-2.51-.75-3.82-.17-5.18-.87-26.65-1.15-32.61-.32-6.79-2.2-18.68,2.51-18.91s5.72,3.24,5.72,3.24c0,0,3.12,6.97,2.82,13.56,0,0,.86-23.17,6.54-23.11,4.36.05,4.95,9.07,4.99,13.26.02,1.92.11,3.84.26,5.76l2.21,28.3s4.72,19,2.18,23.22c-1.27,2.11-3.17,1.6-4.76.56-1.83-1.2-3.1-3.11-3.62-5.27-1.15-4.74-2.99-15.73-1.05-32.59,0,0-1.31,15.6-3.79,15.59s-5.53-9.21-5.48-15.46l1.01,12.73Z"/><path id="I" class="cls-6" d="M53.49,8.98c-.9.65-1.41,1.68-1.45,2.74-.34,7.42-2.82,48.37-2.61,50.71.23,2.57,2.43,10.37,7.45,8.22,0,0,2.28.86,1.82-14.37-.39-13.14,1.93-33.61,2.57-38.99.13-1.09.1-2.19-.09-3.26-.34-1.95-1.29-4.36-2.71-5.15-1.7-.94-3.51-.97-4.98.1Z"/><path id="_x31_.M" class="cls-6" d="M69.73,53.08s.01,16.83-4.73,18.13c-2.76.76-3.99-1.5-4.53-3.51-.34-1.26-.44-2.57-.34-3.88.39-5.16,1.98-26.59,2.34-32.54.4-6.79-.19-18.82,4.51-18.52s5.34,3.85,5.34,3.85c0,0,2.35,7.27,1.35,13.79,0,0,3.33-22.94,8.97-22.25,4.33.53,3.95,9.57,3.54,13.73-.19,1.91-.3,3.83-.36,5.75l-.83,28.37s2.66,19.41-.31,23.32c-1.48,1.96-3.32,1.24-4.79.03-1.69-1.39-2.75-3.44-3.03-5.64-.63-4.83-1.29-15.97,2.44-32.51,0,0-2.97,15.37-5.43,15.07s-4.52-9.77-3.8-15.97l-.35,12.76Z"/><g id="_x31_.P"><path id="P" class="cls-6" d="M96.67,67.08c-.05.75-.08,1.5-.1,2.25-.05,1.76-.54,4.74-3.06,5.8-3.67,1.55-5.85-3.05-6.16-10.41-.31-7.36-1.03-32.22-.36-35.89s6.65-22.52,20.41-21.09.46,22.95.46,22.95c0,0-4.41,6.21-9.51,9.56-1.39.91-2.17,2.47-2.11,4.1.21,5.89.65,19.12.42,22.72Z"/><path class="cls-3" d="M96.09,29.72s1.41-5.93,5.18-7.83c3.77-1.9-4.66,11.17-5.18,7.83Z"/></g><g id="R"><path id="R-2" class="cls-5" d="M107.8,68.8c-.67-.93-.99-2.06-.99-3.2,0-7.41.61-51.27,13.77-54.23,0,0,3.49-2.16,8.28,4.43,4.79,6.59,3.29,27.72-5.77,31.03,0,0,10.99,28.88,11.79,29.77.79.89,3.31,7.41,1.5,9.6-1.81,2.19-5.92.69-5.92.69,0,0-11.32-15.55-13.76-37.24,0,0-.01-.01-.01,0,0,1.38.01,13.26-.9,17.42-1.01,4.62-6.39,3.92-7.98,1.72Z"/><path class="cls-3" d="M120.25,35.59s-1.23-5.83,1.37-9.14c2.6-3.3.51,11.86-1.37,9.14Z"/></g><g id="O"><path class="cls-6" d="M135.08,19.65c-.1.23.1-.23,0,0h0Z"/><path id="O-2" class="cls-6" d="M144.5,14.4c-6.37-1.06-8.95,4.11-9.42,5.25.1-.23-.1.23,0,0-1.03,2.39-5.91,14.45-5.68,28.24,0,.26.01.51.02.77.32,10.48,4.26,16.92,6.86,20.05,1.74,2.1,4.62,3.29,7.67,3.05,3.06-.24,6.38-1.87,6.94-7.62,1.08-11.05,1.29-21.97.9-26.8-.4-4.83,0-21.72-7.28-22.94ZM143.25,39.85c.06,2.62.02,8.45-.17,14.31-.1,3.05-.65,3.69-1.15,3.61-.5-.08-.98-.92-1.26-2.16-.43-1.86-1.07-5.58-1.12-11.22,0-.14,0-.28,0-.41-.03-7.41.79-13.54.96-14.75.08-.58.51-3.17,1.56-2.16,1.2,1.15,1.12,10.18,1.18,12.8Z"/><path class="cls-6" d="M140.51,29.21c-.02.12.02-.12,0,0h0Z"/></g><g id="_x32_.P"><path id="P-2" class="cls-6" d="M119.91,127.19c-.02.73-.02,1.45-.01,2.18.01,1.7-.35,4.6-2.83,5.71-3.6,1.61-5.96-2.76-6.55-9.87-.59-7.1-2.28-31.11-1.74-34.68.54-3.56,5.78-21.98,19.58-21.03s1.34,22.17,1.34,22.17c0,0-4.17,6.14-9.13,9.54-1.35.93-2.07,2.46-1.95,4.02.44,5.68,1.38,18.46,1.3,21.95Z"/><path class="cls-3" d="M119.86,87.85s1.18-5.77,4.87-7.73c3.69-1.96-4.23,10.95-4.87,7.73Z"/></g><g id="_x31_.A"><path id="A" class="cls-7" d="M73.11,71.07c-1.27.19-2.27,1.2-2.51,2.49-1.32,7.23-6.49,35.28-7.94,39.51-1.61,4.7-7.72,27.27-2.83,27.96,4.88.7,6.54-7.46,6.54-7.46,0,0,3.42-15.13,5.47-15.13,0,0,1.66-.3,1.27,2.39-.39,2.69-1.86,26.17,5.76,26.87,7.62.7,5.88-10.25,5.88-10.25l-2.9-20.9c-.17-1.2-.29-2.4-.38-3.61-.48-6.45-2.07-27.99-2.11-31.42-.05-3.71-1.38-11.18-6.25-10.45Z"/><path class="cls-3" d="M73.53,99.51c-.09-.47-.6-.52-.74-.07-.73,2.29-1.82,7.68-1.1,8.78.03.05.07.1.1.14.93,1.18,2.51.16,2.43-1.52-.11-2.07-.33-5.52-.69-7.33Z"/></g><g id="_x32_.A"><path id="A-2" class="cls-6" d="M138.4,69.09c-1.27.19-2.27,1.2-2.51,2.49-1.32,7.23-6.49,35.28-7.94,39.51-1.61,4.7-7.72,27.27-2.83,27.96s6.54-7.46,6.54-7.46c0,0,3.42-15.13,5.47-15.13,0,0,1.66-.3,1.27,2.39-.39,2.69-1.86,26.17,5.76,26.87s5.88-10.25,5.88-10.25l-2.9-20.9c-.17-1.2-.29-2.4-.38-3.61-.48-6.45-2.07-27.99-2.11-31.42-.05-3.71-1.38-11.18-6.25-10.45Z"/><path class="cls-9" d="M138.81,97.52c-.09-.47-.6-.52-.74-.07-.73,2.29-1.82,7.68-1.1,8.78.03.05.07.1.1.14.93,1.18,2.51.16,2.43-1.52-.11-2.07-.33-5.52-.69-7.33Z"/></g><path id="C" class="cls-6" d="M52.29,115.54s.32-14.35,6.45-14.05c6.13.29,1.9,26.94-4.69,31.24-3.46,2.26-6.2-.91-8.01-4.43s-2.59-7.1-2.61-10.85c-.05-11.52.89-43.16,12.72-48.44.22-.1.43-.2.63-.31.9-.51,4.19-1.91,6.34,3.47,1.17,2.93,1.3,6.15.4,9.16-.35,1.17-.85,2.4-1.57,3.52-.82,1.27-2.68,1.52-3.83.51-.99-.87-1.74-2.53-1.13-5.7,0,0-5.86,22.59-4.69,35.9Z"/></g><g id="CITIES"><path class="cls-10" d="M23.66,42.68c.34.11.8.51.96.93.15.42.23.69.24.77,0,.08.05.19.12.22.07.03.15.17.08.27-.07.1-.15.39-.43.47-.28.08-.66.36-1.07.47-.42.12-1.44.53-1.64.67-.2.13-.19.28-.34.19-.14-.09-.2-.1-.26-.22-.06-.13-.14-.21-.31-.2-.16.02-.87-.16-.96-.4-.09-.23.01-.43.13-.65.12-.22.28-.36.48-.44.2-.08.55-.15.7-.07.15.09.33.06.31-.13-.01-.18-.11-.62.15-1.1.25-.47.46-.67.79-.8s.72-.11,1.06,0ZM22.16,43.94c-.1.44.03.72.15.86.12.15-.12.22-.17.32-.05.09-.05.17-.15.21s-.28-.12-.58-.12c-.3,0-.42,0-.55.05-.14.06-.3.18-.26.31.07.25.55.18.62.23.05.05.45,0,.89-.09.46-.09.55-.17.6-.27.06-.09.42-.18.79-.35.38-.16.22-.15.32-.38.09-.24.14-.08.43-.1.27-.02,0-.4-.14-.77-.14-.36-.49-.6-.7-.68-.21-.09-.56-.07-.79.02s-.33.3-.44.75Z"/><path class="cls-10" d="M23.19,39.72c.17.23.41.68.51.94.1.27,0,.82-.25.94-.26.11-.06.19-.37.27-.31.07-.56-.13-.7-.14-.13,0-.25-.08-.4-.16-.15-.07-.33-.16-.27.04.07.19.09.48.05.77-.05.29-.15.49-.37.58-.22.09-.93-.05-1.36-.27-.42-.22-.96-.7-1-.81s.05-.21.1-.28c.04-.06.08-.18.13-.2.05-.02.3.02.33.09.03.08-.05.17.04.24.11.07.32.13.43.23.1.09.42.29.63.35.21.06.44.1.55.06.1-.04.13-.11-.03-.44s-.09-.48-.05-.69c.05-.2.14-.51.36-.46.22.04.94.35,1.11.39.17.04.3.07.47,0,.18-.07.17-.18.08-.43-.09-.24-.43-1.03-.59-1.17-.16-.15-.12-.32.03-.25.17.07.42.18.58.42Z"/><path class="cls-10" d="M21.37,36.45c.09.23.08.92,0,1.28-.08.37-.29.77-.39.86-.11.09-.12.27-.31.35-.2.08-.25-.05-.35-.29-.09-.24-.06-.33-.14-.52-.07-.18-.22-.29-.34-.35-.12-.07-.13-.15-.34-.07-.19.08-.25.17-.37.33s-.16.24-.11.37.44.43.71.57c.27.14.55.32.71.29s.3-.07.6-.06c.31,0,.71-.04.9-.12.18-.07.27-.26.43-.32.15-.06.32-.04.36.06s.03.2-.02.33c-.04.13-.04.28-.31.39-.28.11-.68.41-.83.29-.14-.13-.47-.11-.9-.08-.43.03-1.03-.14-1.23-.28-.2-.13-.49-.39-.64-.48-.15-.09-.21-.25-.27-.39-.12-.3.15-.69.39-.96.23-.28.44-.39.65-.47.22-.09.5-.05.66.03.16.08.26.27.32.42s.17.46.27.17c.1-.29.17-.76.05-1.04-.13-.28-.01-.46.15-.42.17.03.25-.1.34.12Z"/><path class="cls-10" d="M20.1,33.49c.12.07.57.32.81.94.24.62.14,1.47-1.34,2.07-.56.23-1.37.39-1.55.44-.18.05-.58.27-.68.01-.04-.11-.01-.21.03-.28.03-.07.1-.16.2-.21.1-.04.29,0,.41-.04.11-.04.69-.14,1.01-.27.31-.13,1-.49,1.25-.8.24-.3.25-.43.14-.69-.1-.26-.38-.54-.57-.67-.18-.14-.22-.3-.16-.41.07-.1.31-.16.43-.09Z"/><path class="cls-10" d="M20.1,32.54c.15-.04.3,0,.36.14.05.14.04.34-.5.55-.54.21-1.57.65-1.95.83-.37.17-1.06.41-1.2.44-.14.04-.26-.02-.29-.09-.05-.13.07-.25.13-.36.07-.11.21-.24.42-.29.21-.05.72-.22,1.25-.51.52-.28.68-.4,1.03-.49.35-.1.58-.17.74-.22Z"/><path class="cls-10" d="M15.54,30.02c.3-.12.84-.31,1.24-.5.41-.17,1.75-.62,2.02.06.27.69-.31,1.31-.58,1.64-.27.33-.27.42-.42.5-.16.09-.3.16-.27.23.03.08.32.08.55.01.22-.07,1.03-.27,1.17-.27.13-.01.21.04.24-.08.04-.11.24-.06.33-.05.09.02.12.06.15.15.04.1-.06.41-.24.48-.18.07-.73.12-.95.18-.23.08-.75.05-1.08.17-.33.12-.66.21-.76.2-.11,0-.32.02-.38-.14-.05-.12-.14-.12.06-.4.2-.27.48-.71.72-.93.23-.22.49-.44.67-.68.19-.25.22-.3.13-.52-.08-.21-.5-.11-.84-.02-.33.1-1.85.54-2.04.62-.18.07-.24.09-.37-.02-.12-.12-.25-.22-.09-.38.16-.18.16-.33.25-.36.08-.03.2.22.49.1Z"/><path class="cls-10" d="M16.28,26.34c.04.09-.04.22,0,.31.04.1.26.45.28.51.03.07.25.47.28.53.03.07.13.14.18.25.05.12-.09.45-.26.52-.16.07-.33.03-.35-.04-.02-.06,0-.23-.08-.32-.07-.09-.25-.34-.3-.47-.05-.13-.21-.46-.27-.55-.06-.08-.1-.31-.14-.29-.03.02-.07-.03-.05-.12.02-.08.16-.31.25-.35.1-.04.15-.15.22-.18.06-.02.23.11.26.19Z"/><path class="cls-10" d="M15.04,21.12c.04.1.15.24-.16.4-.3.16-.49.25-.66.44-.17.18-.39.31-.62.43-.24.11-.68.37-.64.48.04.11.33.16.55.14.22,0,.56.05.71,0,.14-.05.27.05.52,0,.25-.06.68-.15.81.19.13.33-.13.62-.56.89-.41.27-.78.49-.75.58.04.09.28.16.48.13s.32,0,.55-.1c.23-.1.33.01.64-.05.3-.06.54-.04.88-.09.33-.05.39-.03.54-.09.16-.06.25.04.28.12.03.08-.09.39-.27.47-.27.11-.78.11-1.25.21s-.66-.08-.94.02c-.28.1-.68-.02-.93-.04-.25-.02-.57-.08-.66-.06-.08.02-.18.03-.22-.07-.04-.1.04-.36.24-.55.21-.2.48-.42.71-.56.22-.14.39-.26.35-.35s-.42-.12-.65-.09c-.24.03-.74-.02-1.08-.09s-.69-.12-.75-.27-.03-.4.17-.59c.2-.19.65-.54.97-.68.32-.14.49-.27.6-.39.11-.11.38-.12.49-.23.1-.12.24-.25.37-.3.12-.05.25.01.29.1Z"/><path class="cls-10" d="M11.32,19.23c.04.1-.02.23.28.05.29-.17.57-.4,1.06-.6s1.09-.36,1.43-.32c.34.05.76.24.89.57.13.33.1.73-.07.95-.17.22-.1.37-.34.63-.23.26-1.01.96-1.6,1.2-.59.24-1.14.21-1.21.03-.05-.13.01-.19.08-.26.06-.08.22-.23.35-.18.13.04.43-.16.67-.19.25-.03.61-.38.84-.55.22-.18.6-.45.66-.66.07-.2.24-.31.12-.62-.12-.32-.56-.5-1.6-.08-1.05.42-1.5.82-1.63.92-.14.11-.14.24-.35.13-.22-.11-.16-.18-.11-.39.05-.2.06-.36.04-.46-.02-.1.1-.17.22-.2.12-.03.24-.08.27.02Z"/><path class="cls-10" d="M9.91,15.6c.3-.12.84-.31,1.24-.5.41-.17,1.75-.62,2.02.06.27.69-.31,1.31-.58,1.64-.27.33-.27.42-.42.5-.16.09-.3.16-.27.23s.32.08.55.01c.22-.06,1.03-.27,1.17-.27.13-.01.21.04.24-.08.04-.11.25-.05.33-.05.09.02.12.06.15.15.04.1-.06.41-.24.48-.18.07-.73.12-.95.18-.23.08-.75.05-1.08.17-.33.12-.66.21-.76.2-.11,0-.32.02-.38-.14-.05-.12-.14-.12.06-.4.2-.27.48-.71.72-.93.23-.22.49-.44.67-.68.19-.25.22-.3.13-.52-.08-.21-.5-.11-.84-.02-.33.1-1.85.54-2.04.62-.18.07-.24.09-.37-.02-.12-.12-.25-.22-.09-.38.16-.18.16-.33.25-.36.08-.03.2.22.49.1Z"/><path class="cls-10" d="M12.52,13.13c.15-.04.3,0,.36.14.05.14.04.34-.5.55-.54.21-1.57.65-1.95.83-.37.17-1.06.41-1.2.44-.14.04-.26-.02-.29-.09-.05-.13.07-.25.13-.36.07-.12.21-.24.42-.29.21-.05.72-.22,1.25-.51.52-.28.68-.4,1.03-.49.35-.1.58-.17.74-.22Z"/><path class="cls-10" d="M8.76,10.64c-.04.13-.24.58-.32.91-.08.33-.06.51,0,.68.07.17.24.21.45.27.2.05.11.19.43.2.32.02.87.05,1.44-.18.58-.24.67-.69.69-.81.03-.13.1-.28-.04-.63-.13-.34-.39-.73-.51-.89s-.1-.31.04-.31c.15,0,.32-.08.48.19.16.27.35.58.47.86.11.29.15.69.04.95-.12.26-.08.3.04.17.12-.14.21-.04-.08.24-.28.29-.53.63-1.01.83s-1.37.28-1.7.21c-.33-.06-.58-.02-.71-.16-.13-.13-.35-.24-.47-.55-.19-.48.06-.86.1-1.19.04-.37.35-.77.43-.83.07-.06.26-.08.22.04Z"/><path class="cls-10" d="M9.38,6.96c.21.07.3.09.35.2.05.12-.14.32-.36.36-.22.04-.35.22-.49.3-.14.08-.23.1-.13.29.1.18.34.57.4.7.07.12.18.25.22.37.04.11.05.19.24.1.18-.08.51-.27.69-.39.19-.12.4-.23.51-.22.11,0,.19.06.21.12.07.17-.14.25-.2.39-.07.14-.13.27-.4.38-.27.11-.74.33-.95.47-.21.15-1.3.59-1.48.66s-.29,0-.34-.12c-.05-.12.07-.17.12-.25.05-.08.07-.19.28-.25.21-.06.67-.29.75-.32.08-.03.12-.07.04-.3-.08-.24-.09-.38-.23-.58-.13-.19-.21-.61-.35-.52-.14.09-.7.5-1.02.63-.31.13-.72.27-.76.18-.04-.1.09-.22.19-.37.1-.14.09-.26.32-.34.24-.08.47-.17.6-.29.14-.12,0-.15.22-.28.43-.23.24-.37.45-.44.2-.07.46-.18.65-.34.19-.17.25-.2.46-.14Z"/></g></g></svg>